<svg xmlns="http://www.w3.org/2000/svg" viewBox="0 0 72.1 55.737">
  <defs>
    <style>
      .cls-1 {
        fill: #ff2d9f;
      }

      .cls-2 {
        fill: #fafafa;
        stroke: #3913b3;
        stroke-width: 3.5px;
      }

      .cls-3, .cls-4 {
        stroke: none;
      }

      .cls-4 {
        fill: #3913b3;
      }

      .cls-5 {
        fill: none;
      }
    </style>
  </defs>
  <g id="Group_3383" data-name="Group 3383" transform="translate(-19197.888 2417.308) rotate(-5)">
    <g id="Subtraction_74" data-name="Subtraction 74" class="cls-1" transform="translate(19335 -736)">
      <path class="cls-3" d="M 66.25040435791016 55.2505989074707 L 25.00020217895508 55.2505989074707 C 21.86149215698242 55.2505989074707 18.81690216064453 54.63608169555664 15.9510326385498 53.42409896850586 C 13.18240261077881 52.25321197509766 10.69564247131348 50.57657241821289 8.559842109680176 48.44076156616211 C 6.424032211303711 46.30496215820312 4.747392177581787 43.81819915771484 3.576492071151733 41.0495491027832 C 2.364492177963257 38.18476104736328 1.750002145767212 35.1402587890625 1.750002145767212 32.00040054321289 C 1.750002145767212 28.85995101928711 2.364492177963257 25.81513977050781 3.576402187347412 22.95055961608887 C 4.747542381286621 20.18218994140625 6.424211978912354 17.69567108154297 8.559842109680176 15.56004047393799 C 10.69564247131348 13.42423057556152 13.18240261077881 11.74759101867676 15.95105171203613 10.57669067382812 C 18.81506156921387 9.364670753479004 21.85951232910156 8.750200271606445 25.00020217895508 8.750200271606445 L 66.25040435791016 8.750200271606445 L 66.25040435791016 21.25040054321289 L 25.00020217895508 21.25040054321289 C 19.0726318359375 21.25040054321289 14.25020217895508 26.07283020019531 14.25020217895508 32.00040054321289 C 14.25020217895508 37.92797088623047 19.0726318359375 42.75040054321289 25.00020217895508 42.75040054321289 L 66.25040435791016 42.75040054321289 L 66.25040435791016 55.2505989074707 Z"/>
      <path class="cls-4" d="M 64.50040435791016 53.5005989074707 L 64.50040435791016 44.50040054321289 L 25.00020217895508 44.50040054321289 C 18.10768508911133 44.50040054321289 12.50020217895508 38.89291763305664 12.50020217895508 32.00040054321289 C 12.50020217895508 25.10788345336914 18.10768508911133 19.50040054321289 25.00020217895508 19.50040054321289 L 64.50040435791016 19.50040054321289 L 64.50040435791016 10.50020027160645 L 25.00020217895508 10.50020027160645 C 22.09510803222656 10.50020027160645 19.28013229370117 11.06810665130615 16.6327075958252 12.18848323822021 C 14.07267284393311 13.27115345001221 11.77290821075439 14.82184791564941 9.797272682189941 16.79747200012207 C 7.82176685333252 18.77298927307129 6.271025657653809 21.07256507873535 5.188107967376709 23.63241195678711 C 4.067966938018799 26.28008270263672 3.500002145767212 29.09548377990723 3.500002145767212 32.00040054321289 C 3.500002145767212 34.90471649169922 4.067966938018799 37.71981048583984 5.188284397125244 40.36789321899414 C 6.270955085754395 42.92790603637695 7.821637630462646 45.22768402099609 9.797284126281738 47.20333099365234 C 11.77290821075439 49.1789665222168 14.07267284393311 50.72966003417969 16.63264846801758 51.81230545043945 C 19.28168487548828 52.93257522583008 22.09694290161133 53.5005989074707 25.00020217895508 53.5005989074707 L 64.50040435791016 53.5005989074707 M 68.00040435791016 57.0005989074707 L 25.00020217895508 57.0005989074707 C 21.62603759765625 57.0005989074707 18.35213088989258 56.33957672119141 15.26940250396729 55.03590774536133 C 12.2921199798584 53.77676391601562 9.618367195129395 51.97417831420898 7.322402000427246 49.67819976806641 C 5.026437282562256 47.38222503662109 3.223849296569824 44.7084846496582 1.964708089828491 41.731201171875 C 0.6610257029533386 38.64969635009766 2.178955128329108e-06 35.37578964233398 2.178955128329108e-06 32.00040054321289 C 2.178955128329108e-06 28.62441253662109 0.6610257029533386 25.35020065307617 1.964708089828491 22.2686939239502 C 3.22404932975769 19.29182434082031 5.026637554168701 16.61836433410645 7.322402000427246 14.32260036468506 C 9.618367195129395 12.02663612365723 12.2921199798584 10.22404766082764 15.26940250396729 8.964906692504883 C 18.35000228881836 7.661223888397217 21.62390899658203 7.000200748443604 25.00020217895508 7.000200748443604 L 68.00040435791016 7.000200748443604 L 68.00040435791016 23.00040054321289 L 25.00020217895508 23.00040054321289 C 20.03757858276367 23.00040054321289 16.00020217895508 27.03777694702148 16.00020217895508 32.00040054321289 C 16.00020217895508 36.9630241394043 20.03757858276367 41.00040054321289 25.00020217895508 41.00040054321289 L 68.00040435791016 41.00040054321289 L 68.00040435791016 56.99959945678711 L 68.00040435791016 57.0005989074707 Z"/>
    </g>
    <g id="Rectangle_1166" data-name="Rectangle 1166" class="cls-2" transform="translate(19389 -729)">
      <rect class="cls-3" width="14" height="16"/>
      <rect class="cls-5" x="1.75" y="1.75" width="10.5" height="12.5"/>
    </g>
    <g id="Rectangle_1169" data-name="Rectangle 1169" class="cls-2" transform="translate(19389 -695)">
      <rect class="cls-3" width="14" height="16"/>
      <rect class="cls-5" x="1.75" y="1.75" width="10.5" height="12.5"/>
    </g>
  </g>
</svg>
