<svg xmlns="http://www.w3.org/2000/svg" xmlns:xlink="http://www.w3.org/1999/xlink" viewBox="0 0 276.209 84.406">
  <defs>
    <style>
      .cls-1 {
        fill: #f9eb00;
      }

      .cls-2 {
        clip-path: url(#clip-path);
      }
    </style>
    <clipPath id="clip-path">
      <path id="Path_3886" data-name="Path 3886" d="M0,4.721H276.208V-79.685H0Z" transform="translate(0 79.685)"/>
    </clipPath>
  </defs>
  <g id="Group_3375" data-name="Group 3375" transform="translate(-141 -64.909)">
    <g id="Group_3355" data-name="Group 3355" transform="translate(141 64.909)">
      <path id="Path_3878" data-name="Path 3878" class="cls-1" d="M2.751,0-20.432,17.932h8.325L-45.6,53.987h20.557L-46.433,84.406h35.991L3.07,40.538H-11.979l9.671-22.606H3.584Z" transform="translate(46.433)"/>
    </g>
    <g id="Group_3363" data-name="Group 3363" class="cls-2" transform="translate(141 64.909)">
      <g id="Group_3356" data-name="Group 3356" transform="translate(65.734 27.972)">
        <path id="Path_3879" data-name="Path 3879" d="M1.549.671h-9.03c.9-2.433-.961-3.394-2.3-3.458a3.134,3.134,0,0,0-3.458,2.5C-14.461,5.218,1.486,3.681-1.012,16.425c-1.409,7.237-7.045,10.311-14.474,9.991-7.237-.385-11.911-5-10.374-12.425H-16.7c-.833,2.754.833,3.779,2.626,3.843,2.05.064,3.458-.9,3.843-2.818.96-5.059-14.345-4.355-12.04-16.459,1.281-6.789,6.789-10.119,13.833-9.863C-1.4-11.112,3.15-6.5,1.549.671" transform="translate(26.152 11.319)"/>
      </g>
      <g id="Group_3357" data-name="Group 3357" transform="translate(95.604 29.844)">
        <path id="Path_3880" data-name="Path 3880" d="M.094.369c4.291,0,5.763-1.665,6.789-6.6h6.083L11.685-.144h4.291l-1.73,7.813H10.02L7.459,19.325c-.385,1.985.64,2.818,3.842,2.241L9.635,29.38c-9.99.961-12.359-3.33-10.759-11.015L1.183,7.734H-1.571Z" transform="translate(1.581 6.227)"/>
      </g>
      <g id="Group_3358" data-name="Group 3358" transform="translate(110.986 35.479)">
        <path id="Path_3881" data-name="Path 3881" d="M.716,1.658,1.164-.775A8.074,8.074,0,0,1-5.3,2.106c-3.907,0-7.685-2.818-6.6-8.453,1.92-9.991,15.69-8.2,16.586-12.489.256-1.217-.383-2.05-1.792-2.05a3.021,3.021,0,0,0-3.139,2.69H-8.634c1.537-7.045,5.252-9.8,12.3-9.8,6.6,0,11.015,3.137,9.35,10.95-.128.9-3.97,18.763-3.97,18.763H.716ZM2.958-11.406C1.933-9.869-2.421-9.933-3-7.179c-.383,1.665.513,2.113,1.665,2.113A4.131,4.131,0,0,0,2.445-8.652V-8.78Z" transform="translate(12.089 27.992)"/>
      </g>
      <g id="Group_3359" data-name="Group 3359" transform="translate(136.984 35.529)">
        <path id="Path_3882" data-name="Path 3882" d="M1.1.488C-3.067.1-5.564,1.512-6.525,6.123L-9.727,21.3H-18.5l6.211-29.139h8.261l-.512,2.562S-2.491-8.8,2.953-8.158Z" transform="translate(18.5 8.236)"/>
      </g>
      <g id="Group_3360" data-name="Group 3360" transform="translate(158.94 29.844)">
        <path id="Path_3883" data-name="Path 3883" d="M.094.369c4.291,0,5.763-1.665,6.789-6.6h6.083L11.685-.144h4.291l-1.73,7.813H10.02L7.459,19.325c-.385,1.985.64,2.818,3.842,2.241L9.635,29.38c-9.99.961-12.359-3.33-10.759-11.015L1.183,7.734H-1.571Z" transform="translate(1.581 6.227)"/>
      </g>
      <g id="Group_3361" data-name="Group 3361" transform="translate(175.612 35.927)">
        <path id="Path_3884" data-name="Path 3884" d="M.977,0H9.751L5.844,18.187C4.243,25.744.4,29.715-6.772,29.715c-6.98,0-10.887-4.419-9.414-11.528L-12.279,0h8.774L-7.732,19.469C-8.116,21.454-7.027,21.9-6,21.9a2.8,2.8,0,0,0,2.818-2.433Z" transform="translate(16.495)"/>
      </g>
      <g id="Group_3362" data-name="Group 3362" transform="translate(198.399 35.543)">
        <path id="Path_3885" data-name="Path 3885" d="M.469.022H8.73l-.512,2.5A7.161,7.161,0,0,1,14.11-.363c4.674,0,7.877,2.562,6.276,10.119L18.273,19.49c-1.6,7.557-4.8,10.118-9.478,10.118A5.63,5.63,0,0,1,3.48,26.726L.789,39.406H-7.92ZM11.42,10.2c.385-1.985-.7-2.433-1.729-2.433A2.741,2.741,0,0,0,6.937,10.2l-1.857,8.9c-.385,1.985.7,2.433,1.665,2.433a2.8,2.8,0,0,0,2.818-2.433Z" transform="translate(7.92 0.363)"/>
      </g>
    </g>
    <g id="Group_3364" data-name="Group 3364" transform="translate(368.986 93.408)">
      <path id="Path_3887" data-name="Path 3887" d="M.516,2.049H-8.706L-.893-34.582H8.329Z" transform="translate(8.706 34.582)"/>
    </g>
    <g id="Group_3365" data-name="Group 3365" transform="translate(384.74 93.408)">
      <path id="Path_3888" data-name="Path 3888" d="M1.3,0-2.162,16.267-5.3,0h-8.774l-7.813,36.632H-12.6l3.394-16.14L-6,36.632H2.77L10.583,0Z" transform="translate(21.886)"/>
    </g>
  </g>
</svg>
